<svg width="17" height="17" viewBox="0 0 17 17" fill="none" xmlns="http://www.w3.org/2000/svg">
<path d="M16.9707 8.51465C16.9707 13.201 13.1717 17 8.48535 17C3.79902 17 0 13.201 0 8.51465C0 3.82832 3.79902 0.0292969 8.48535 0.0292969C13.1717 0.0292969 16.9707 3.82832 16.9707 8.51465Z" fill="white"/>
<g clip-path="url(#clip0_375_53)">
<path d="M12.7034 5.33944L11.4388 6.58603C10.6376 5.74211 9.70371 5.32015 8.6372 5.32015C7.70783 5.32015 6.92826 5.62704 6.29847 6.24083C5.66868 6.85462 5.35589 7.60053 5.36011 8.47857C5.36011 9.38625 5.68568 10.1552 6.33683 10.7855C6.98797 11.4158 7.79116 11.7311 8.74638 11.7314C9.36718 11.7314 9.88975 11.6015 10.3141 11.3417C10.7385 11.0819 11.0833 10.6748 11.3486 10.1203H8.61233V8.4404H13.3653L13.3783 8.83677C13.3782 9.65978 13.1564 10.4677 12.7359 11.1764C12.307 11.9138 11.7523 12.4764 11.0716 12.8643C10.391 13.2521 9.592 13.4461 8.67472 13.4461C7.69364 13.4461 6.81767 13.2351 6.04681 12.8131C5.28114 12.388 4.64933 11.7595 4.22193 10.9978C3.77942 10.2245 3.54901 9.34908 3.55378 8.45927C3.55378 7.21492 3.96718 6.13233 4.79397 5.21151C5.77477 4.1162 7.05121 3.56854 8.62329 3.56854C9.41547 3.56224 10.2006 3.71667 10.9308 4.02238C11.5345 4.27825 12.1254 4.71726 12.7034 5.33944Z" fill="black"/>
</g>
<path d="M12.9518 11.1964C13.0977 11.1941 13.2425 11.2221 13.3772 11.2786C13.512 11.3352 13.6339 11.4191 13.7354 11.5252C13.8405 11.6262 13.9236 11.7483 13.9795 11.8836C14.0355 12.0189 14.063 12.1645 14.0603 12.3112C14.0553 12.6054 13.9362 12.8858 13.7289 13.0921C13.5215 13.2984 13.2424 13.414 12.9516 13.414C12.6608 13.414 12.3817 13.2984 12.1743 13.0921C11.967 12.8858 11.848 12.6054 11.843 12.3112C11.8403 12.1645 11.8678 12.0189 11.9237 11.8836C11.9796 11.7483 12.0627 11.6262 12.1678 11.5252C12.2694 11.4191 12.3913 11.3352 12.5261 11.2786C12.661 11.2221 12.8058 11.1941 12.9518 11.1964Z" fill="#F83B6A"/>
<path fill-rule="evenodd" clip-rule="evenodd" d="M12.9515 10.4893C13.1916 10.4871 13.4294 10.5339 13.6508 10.6267C13.871 10.7191 14.0701 10.8551 14.2364 11.026C14.4072 11.1932 14.5422 11.3933 14.6334 11.614C14.7264 11.8391 14.7721 12.081 14.7677 12.3244C14.7594 12.8014 14.5665 13.2577 14.2278 13.5946C13.8887 13.932 13.4304 14.1225 12.9514 14.1225C12.4723 14.1225 12.0141 13.932 11.675 13.5946C11.3362 13.2577 11.1433 12.8014 11.1351 12.3244C11.1307 12.081 11.1763 11.8391 11.2693 11.614C11.3606 11.3933 11.4955 11.1931 11.6664 11.026C11.8328 10.855 12.0319 10.719 12.2522 10.6267C12.4736 10.5338 12.7115 10.4871 12.9515 10.4893ZM12.9515 11.1972C12.8056 11.1949 12.6607 11.2228 12.5259 11.2794C12.3911 11.3359 12.2691 11.4198 12.1676 11.5259C12.0625 11.627 11.9794 11.749 11.9234 11.8843C11.8675 12.0197 11.84 12.1653 11.8427 12.3119C11.8477 12.6061 11.9667 12.8866 12.1741 13.0928C12.3815 13.2991 12.6606 13.4147 12.9514 13.4147C13.2421 13.4147 13.5213 13.2991 13.7286 13.0928C13.936 12.8866 14.055 12.6061 14.06 12.3119C14.0627 12.1653 14.0352 12.0197 13.9793 11.8843C13.9234 11.749 13.8402 11.627 13.7352 11.5259C13.6337 11.4198 13.5118 11.3359 13.377 11.2794C13.2422 11.2228 13.0974 11.1949 12.9515 11.1972Z" fill="white"/>
<defs>
<clipPath id="clip0_375_53">
<rect width="9.83011" height="9.89302" fill="white" transform="translate(3.55371 3.56836)"/>
</clipPath>
</defs>
</svg>
