<svg width="164" height="27" viewBox="0 0 164 27" fill="none" xmlns="http://www.w3.org/2000/svg">
<mask id="path-1-outside-1_504_4279" maskUnits="userSpaceOnUse" x="-2" y="-2" width="168" height="31" fill="black">
<rect fill="white" x="-2" y="-2" width="168" height="31"/>
<path d="M7.497 5.862V9.342H15.965V14.504H7.497V21H0.653V0.699999H17.154V5.862H7.497ZM19.3161 0.699999H26.1601V21H19.3161V0.699999ZM33.8628 6.007H27.9178V0.699999H46.6518V6.007H40.7068V21H33.8628V6.007ZM80.3237 23.552C79.6084 24.4027 78.748 25.0407 77.7427 25.466C76.7374 25.9107 75.6257 26.133 74.4077 26.133C73.1897 26.133 72.0974 25.9783 71.1307 25.669C70.164 25.379 69.1974 24.8763 68.2307 24.161C67.264 23.465 66.162 22.4693 64.9247 21.174C63.2234 20.826 61.725 20.1687 60.4297 19.202C59.1344 18.216 58.1194 17.0077 57.3847 15.577C56.6694 14.1463 56.3117 12.5707 56.3117 10.85C56.3117 8.82 56.8047 7.00267 57.7907 5.398C58.7767 3.774 60.1397 2.50767 61.8797 1.599C63.6197 0.690333 65.582 0.235999 67.7667 0.235999C69.9514 0.235999 71.9137 0.690333 73.6537 1.599C75.3937 2.50767 76.7567 3.774 77.7427 5.398C78.7287 7.00267 79.2217 8.82 79.2217 10.85C79.2217 13.0733 78.632 15.0453 77.4527 16.766C76.2734 18.4673 74.6784 19.724 72.6677 20.536C72.9577 20.8453 73.2477 21.058 73.5377 21.174C73.847 21.3093 74.1854 21.377 74.5527 21.377C75.558 21.377 76.4957 20.942 77.3657 20.072L80.3237 23.552ZM67.7667 5.775C66.916 5.775 66.1427 5.98767 65.4467 6.413C64.77 6.819 64.2287 7.40867 63.8227 8.182C63.4167 8.936 63.2137 9.82533 63.2137 10.85C63.2137 11.8747 63.4167 12.7737 63.8227 13.547C64.2287 14.301 64.77 14.8907 65.4467 15.316C66.1427 15.722 66.916 15.925 67.7667 15.925C68.6174 15.925 69.381 15.722 70.0577 15.316C70.7537 14.8907 71.3047 14.301 71.7107 13.547C72.1167 12.7737 72.3197 11.8747 72.3197 10.85C72.3197 9.82533 72.1167 8.936 71.7107 8.182C71.3047 7.40867 70.7537 6.819 70.0577 6.413C69.381 5.98767 68.6174 5.775 67.7667 5.775ZM91.4207 21.464C88.3081 21.464 85.8817 20.623 84.1417 18.941C82.4017 17.259 81.5317 14.9003 81.5317 11.865V0.699999H88.3757V11.662C88.3757 13.1507 88.6367 14.2333 89.1587 14.91C89.7001 15.5867 90.4734 15.925 91.4787 15.925C92.4841 15.925 93.2477 15.5867 93.7697 14.91C94.3111 14.2333 94.5817 13.1507 94.5817 11.662V0.699999H101.31V11.865C101.31 14.9003 100.44 17.259 98.6997 18.941C96.9597 20.623 94.5334 21.464 91.4207 21.464ZM121.325 15.838V21H104.447V0.699999H120.948V5.862H111.175V8.24H119.759V13.17H111.175V15.838H121.325ZM140.838 15.838V21H123.96V0.699999H140.461V5.862H130.688V8.24H139.272V13.17H130.688V15.838H140.838ZM163.482 0.699999V21H157.856L150.142 11.778V21H143.472V0.699999H149.098L156.812 9.922V0.699999H163.482Z"/>
</mask>
<path d="M7.497 5.862V3.862H5.497V5.862H7.497ZM7.497 9.342H5.497V11.342H7.497V9.342ZM15.965 9.342H17.965V7.342H15.965V9.342ZM15.965 14.504V16.504H17.965V14.504H15.965ZM7.497 14.504V12.504H5.497V14.504H7.497ZM7.497 21V23H9.497V21H7.497ZM0.653 21H-1.347V23H0.653V21ZM0.653 0.699999V-1.3H-1.347V0.699999H0.653ZM17.154 0.699999H19.154V-1.3H17.154V0.699999ZM17.154 5.862V7.862H19.154V5.862H17.154ZM5.497 5.862V9.342H9.497V5.862H5.497ZM7.497 11.342H15.965V7.342H7.497V11.342ZM13.965 9.342V14.504H17.965V9.342H13.965ZM15.965 12.504H7.497V16.504H15.965V12.504ZM5.497 14.504V21H9.497V14.504H5.497ZM7.497 19H0.653V23H7.497V19ZM2.653 21V0.699999H-1.347V21H2.653ZM0.653 2.7H17.154V-1.3H0.653V2.7ZM15.154 0.699999V5.862H19.154V0.699999H15.154ZM17.154 3.862H7.497V7.862H17.154V3.862ZM19.3161 0.699999V-1.3H17.3161V0.699999H19.3161ZM26.1601 0.699999H28.1601V-1.3H26.1601V0.699999ZM26.1601 21V23H28.1601V21H26.1601ZM19.3161 21H17.3161V23H19.3161V21ZM19.3161 2.7H26.1601V-1.3H19.3161V2.7ZM24.1601 0.699999V21H28.1601V0.699999H24.1601ZM26.1601 19H19.3161V23H26.1601V19ZM21.3161 21V0.699999H17.3161V21H21.3161ZM33.8628 6.007H35.8628V4.007H33.8628V6.007ZM27.9178 6.007H25.9178V8.007H27.9178V6.007ZM27.9178 0.699999V-1.3H25.9178V0.699999H27.9178ZM46.6518 0.699999H48.6518V-1.3H46.6518V0.699999ZM46.6518 6.007V8.007H48.6518V6.007H46.6518ZM40.7068 6.007V4.007H38.7068V6.007H40.7068ZM40.7068 21V23H42.7068V21H40.7068ZM33.8628 21H31.8628V23H33.8628V21ZM33.8628 4.007H27.9178V8.007H33.8628V4.007ZM29.9178 6.007V0.699999H25.9178V6.007H29.9178ZM27.9178 2.7H46.6518V-1.3H27.9178V2.7ZM44.6518 0.699999V6.007H48.6518V0.699999H44.6518ZM46.6518 4.007H40.7068V8.007H46.6518V4.007ZM38.7068 6.007V21H42.7068V6.007H38.7068ZM40.7068 19H33.8628V23H40.7068V19ZM35.8628 21V6.007H31.8628V21H35.8628ZM80.3237 23.552L81.8544 24.8392L82.9427 23.5451L81.8476 22.2567L80.3237 23.552ZM77.7427 25.466L76.9634 23.6241L76.9485 23.6304L76.9337 23.6369L77.7427 25.466ZM71.1307 25.669L71.7403 23.7642L71.7229 23.7586L71.7054 23.7533L71.1307 25.669ZM68.2307 24.161L69.4204 22.5533L69.4099 22.5456L69.3993 22.5379L68.2307 24.161ZM64.9247 21.174L66.3709 19.7925L65.9386 19.34L65.3255 19.2146L64.9247 21.174ZM60.4297 19.202L59.2183 20.7934L59.2259 20.7992L59.2335 20.8049L60.4297 19.202ZM57.3847 15.577L55.5958 16.4714L55.6007 16.481L55.6056 16.4906L57.3847 15.577ZM57.7907 5.398L59.4947 6.44506L59.5003 6.43596L57.7907 5.398ZM73.6537 1.599L74.5795 -0.173819V-0.17382L73.6537 1.599ZM77.7427 5.398L76.0331 6.43597L76.0387 6.44505L77.7427 5.398ZM77.4527 16.766L79.0964 17.9054L79.1024 17.8967L77.4527 16.766ZM72.6677 20.536L71.9188 18.6815L69.2123 19.7745L71.2086 21.9039L72.6677 20.536ZM73.5377 21.174L74.3393 19.3417L74.3101 19.3289L74.2805 19.317L73.5377 21.174ZM77.3657 20.072L78.8896 18.7767L77.485 17.1243L75.9515 18.6578L77.3657 20.072ZM65.4467 6.413L66.4757 8.12799L66.4827 8.1238L66.4896 8.11956L65.4467 6.413ZM63.8227 8.182L65.5836 9.1302L65.5886 9.12096L65.5935 9.11167L63.8227 8.182ZM63.8227 13.547L62.0519 14.4767L62.0568 14.486L62.0618 14.4952L63.8227 13.547ZM65.4467 15.316L64.3824 17.0093L64.4104 17.0269L64.439 17.0436L65.4467 15.316ZM70.0577 15.316L71.0867 17.031L71.0937 17.0268L71.1006 17.0226L70.0577 15.316ZM71.7107 13.547L73.4716 14.4952L73.4766 14.486L73.4815 14.4767L71.7107 13.547ZM71.7107 8.182L69.9399 9.11167L69.9448 9.12096L69.9498 9.1302L71.7107 8.182ZM70.0577 6.413L68.9934 8.10627L69.0214 8.12388L69.05 8.14056L70.0577 6.413ZM78.793 22.2648C78.277 22.8784 77.6726 23.324 76.9634 23.6241L78.522 27.3079C79.8235 26.7573 80.9397 25.9269 81.8544 24.8392L78.793 22.2648ZM76.9337 23.6369C76.2095 23.9573 75.3773 24.133 74.4077 24.133V28.133C75.8741 28.133 77.2653 27.8641 78.5517 27.2951L76.9337 23.6369ZM74.4077 24.133C73.3565 24.133 72.4751 23.9993 71.7403 23.7642L70.5212 27.5738C71.7197 27.9574 73.0229 28.133 74.4077 28.133V24.133ZM71.7054 23.7533C70.9978 23.5411 70.236 23.1569 69.4204 22.5533L67.041 25.7687C68.1587 26.5958 69.3303 27.2169 70.556 27.5847L71.7054 23.7533ZM69.3993 22.5379C68.5687 21.9399 67.5612 21.0386 66.3709 19.7925L63.4785 22.5555C64.7629 23.9001 65.9593 24.9901 67.0621 25.7841L69.3993 22.5379ZM65.3255 19.2146C63.8904 18.921 62.6683 18.3771 61.6259 17.5991L59.2335 20.8049C60.7818 21.9603 62.5563 22.731 64.5239 23.1334L65.3255 19.2146ZM61.6411 17.6106C60.5802 16.8031 59.7605 15.8253 59.1638 14.6634L55.6056 16.4906C56.4783 18.1901 57.6885 19.6289 59.2183 20.7934L61.6411 17.6106ZM59.1736 14.6826C58.6074 13.5503 58.3117 12.2842 58.3117 10.85H54.3117C54.3117 12.8571 54.7313 14.7423 55.5958 16.4714L59.1736 14.6826ZM58.3117 10.85C58.3117 9.15977 58.7173 7.71022 59.4947 6.44505L56.0867 4.35095C54.8921 6.29511 54.3117 8.48023 54.3117 10.85H58.3117ZM59.5003 6.43596C60.2904 5.1345 61.3776 4.11749 62.8055 3.37182L60.9539 -0.173819C58.9018 0.897846 57.263 2.4135 56.0811 4.36004L59.5003 6.43596ZM62.8055 3.37182C64.2287 2.62862 65.8675 2.236 67.7667 2.236V-1.764C65.2966 -1.764 63.0107 -1.24795 60.9539 -0.173819L62.8055 3.37182ZM67.7667 2.236C69.6659 2.236 71.3047 2.62862 72.7279 3.37182L74.5795 -0.17382C72.5227 -1.24795 70.2368 -1.764 67.7667 -1.764V2.236ZM72.7279 3.37182C74.1558 4.11749 75.243 5.1345 76.0331 6.43596L79.4523 4.36004C78.2704 2.4135 76.6316 0.897846 74.5795 -0.173819L72.7279 3.37182ZM76.0387 6.44505C76.8161 7.71023 77.2217 9.15977 77.2217 10.85H81.2217C81.2217 8.48023 80.6413 6.29511 79.4467 4.35095L76.0387 6.44505ZM77.2217 10.85C77.2217 12.6977 76.7388 14.2699 75.803 15.6353L79.1024 17.8967C80.5253 15.8207 81.2217 13.4489 81.2217 10.85H77.2217ZM75.809 15.6266C74.8627 16.9918 73.5859 18.0082 71.9188 18.6815L73.4166 22.3905C75.7708 21.4398 77.6841 19.9429 79.0964 17.9054L75.809 15.6266ZM71.2086 21.9039C71.6311 22.3545 72.1543 22.7747 72.7949 23.031L74.2805 19.317C74.3133 19.3302 74.3147 19.3361 74.2854 19.3147C74.2557 19.2929 74.2019 19.2483 74.1268 19.1681L71.2086 21.9039ZM72.7361 23.0063C73.3197 23.2617 73.934 23.377 74.5527 23.377V19.377C74.4368 19.377 74.3744 19.357 74.3393 19.3417L72.7361 23.0063ZM74.5527 23.377C76.2027 23.377 77.6241 22.642 78.7799 21.4862L75.9515 18.6578C75.3673 19.242 74.9134 19.377 74.5527 19.377V23.377ZM75.8418 21.3673L78.7998 24.8473L81.8476 22.2567L78.8896 18.7767L75.8418 21.3673ZM67.7667 3.775C66.5646 3.775 65.4276 4.08076 64.4038 4.70644L66.4896 8.11956C66.8578 7.89457 67.2675 7.775 67.7667 7.775V3.775ZM64.4177 4.69801C63.3935 5.31254 62.6097 6.1899 62.0519 7.25233L65.5935 9.11167C65.8477 8.62743 66.1466 8.32546 66.4757 8.12799L64.4177 4.69801ZM62.0618 7.2338C61.4708 8.33138 61.2137 9.55915 61.2137 10.85H65.2137C65.2137 10.0915 65.3627 9.54062 65.5836 9.1302L62.0618 7.2338ZM61.2137 10.85C61.2137 12.1425 61.4713 13.3707 62.0519 14.4767L65.5935 12.6173C65.3621 12.1766 65.2137 11.6069 65.2137 10.85H61.2137ZM62.0618 14.4952C62.6196 15.5311 63.3921 16.3868 64.3824 17.0093L66.511 13.6227C66.1479 13.3945 65.8378 13.0709 65.5836 12.5988L62.0618 14.4952ZM64.439 17.0436C65.4581 17.638 66.5825 17.925 67.7667 17.925V13.925C67.2496 13.925 66.8273 13.806 66.4544 13.5884L64.439 17.0436ZM67.7667 17.925C68.9506 17.925 70.075 17.638 71.0867 17.031L69.0287 13.601C68.6871 13.806 68.2842 13.925 67.7667 13.925V17.925ZM71.1006 17.0226C72.1142 16.4031 72.9064 15.5449 73.4716 14.4952L69.9498 12.5988C69.703 13.0571 69.3932 13.3782 69.0148 13.6094L71.1006 17.0226ZM73.4815 14.4767C74.0621 13.3707 74.3197 12.1425 74.3197 10.85H70.3197C70.3197 11.6069 70.1713 12.1766 69.9399 12.6173L73.4815 14.4767ZM74.3197 10.85C74.3197 9.55915 74.0627 8.33138 73.4716 7.2338L69.9498 9.1302C70.1708 9.54062 70.3197 10.0915 70.3197 10.85H74.3197ZM73.4815 7.25233C72.9163 6.17571 72.1128 5.29639 71.0654 4.68544L69.05 8.14056C69.3946 8.34161 69.6931 8.64162 69.9399 9.11167L73.4815 7.25233ZM71.122 4.71973C70.1058 4.08093 68.9686 3.775 67.7667 3.775V7.775C68.2661 7.775 68.6563 7.8944 68.9934 8.10627L71.122 4.71973ZM84.1417 18.941L82.7517 20.379L84.1417 18.941ZM81.5317 0.699999V-1.3H79.5317V0.699999H81.5317ZM88.3757 0.699999H90.3757V-1.3H88.3757V0.699999ZM89.1587 14.91L87.5752 16.1316L87.586 16.1456L87.597 16.1594L89.1587 14.91ZM93.7697 14.91L92.208 13.6606L92.197 13.6744L92.1862 13.6884L93.7697 14.91ZM94.5817 0.699999V-1.3H92.5817V0.699999H94.5817ZM101.31 0.699999H103.31V-1.3H101.31V0.699999ZM98.6997 18.941L97.3097 17.503L98.6997 18.941ZM91.4207 19.464C88.6723 19.464 86.8008 18.7298 85.5318 17.503L82.7517 20.379C84.9626 22.5162 87.9439 23.464 91.4207 23.464V19.464ZM85.5318 17.503C84.2755 16.2886 83.5317 14.5044 83.5317 11.865H79.5317C79.5317 15.2963 80.528 18.2294 82.7517 20.379L85.5318 17.503ZM83.5317 11.865V0.699999H79.5317V11.865H83.5317ZM81.5317 2.7H88.3757V-1.3H81.5317V2.7ZM86.3757 0.699999V11.662H90.3757V0.699999H86.3757ZM86.3757 11.662C86.3757 13.299 86.6465 14.9277 87.5752 16.1316L90.7423 13.6884C90.627 13.5389 90.3757 13.0023 90.3757 11.662H86.3757ZM87.597 16.1594C88.5813 17.3897 89.9751 17.925 91.4787 17.925V13.925C90.9717 13.925 90.8189 13.7836 90.7205 13.6606L87.597 16.1594ZM91.4787 17.925C92.981 17.925 94.3833 17.389 95.3533 16.1316L92.1862 13.6884C92.1122 13.7843 91.9872 13.925 91.4787 13.925V17.925ZM95.3315 16.1594C96.2979 14.9513 96.5817 13.3097 96.5817 11.662H92.5817C92.5817 12.9916 92.3242 13.5153 92.208 13.6606L95.3315 16.1594ZM96.5817 11.662V0.699999H92.5817V11.662H96.5817ZM94.5817 2.7H101.31V-1.3H94.5817V2.7ZM99.3097 0.699999V11.865H103.31V0.699999H99.3097ZM99.3097 11.865C99.3097 14.5044 98.566 16.2886 97.3097 17.503L100.09 20.379C102.314 18.2294 103.31 15.2963 103.31 11.865H99.3097ZM97.3097 17.503C96.0406 18.7298 94.1692 19.464 91.4207 19.464V23.464C94.8976 23.464 97.8788 22.5162 100.09 20.379L97.3097 17.503ZM121.325 15.838H123.325V13.838H121.325V15.838ZM121.325 21V23H123.325V21H121.325ZM104.447 21H102.447V23H104.447V21ZM104.447 0.699999V-1.3H102.447V0.699999H104.447ZM120.948 0.699999H122.948V-1.3H120.948V0.699999ZM120.948 5.862V7.862H122.948V5.862H120.948ZM111.175 5.862V3.862H109.175V5.862H111.175ZM111.175 8.24H109.175V10.24H111.175V8.24ZM119.759 8.24H121.759V6.24H119.759V8.24ZM119.759 13.17V15.17H121.759V13.17H119.759ZM111.175 13.17V11.17H109.175V13.17H111.175ZM111.175 15.838H109.175V17.838H111.175V15.838ZM119.325 15.838V21H123.325V15.838H119.325ZM121.325 19H104.447V23H121.325V19ZM106.447 21V0.699999H102.447V21H106.447ZM104.447 2.7H120.948V-1.3H104.447V2.7ZM118.948 0.699999V5.862H122.948V0.699999H118.948ZM120.948 3.862H111.175V7.862H120.948V3.862ZM109.175 5.862V8.24H113.175V5.862H109.175ZM111.175 10.24H119.759V6.24H111.175V10.24ZM117.759 8.24V13.17H121.759V8.24H117.759ZM119.759 11.17H111.175V15.17H119.759V11.17ZM109.175 13.17V15.838H113.175V13.17H109.175ZM111.175 17.838H121.325V13.838H111.175V17.838ZM140.838 15.838H142.838V13.838H140.838V15.838ZM140.838 21V23H142.838V21H140.838ZM123.96 21H121.96V23H123.96V21ZM123.96 0.699999V-1.3H121.96V0.699999H123.96ZM140.461 0.699999H142.461V-1.3H140.461V0.699999ZM140.461 5.862V7.862H142.461V5.862H140.461ZM130.688 5.862V3.862H128.688V5.862H130.688ZM130.688 8.24H128.688V10.24H130.688V8.24ZM139.272 8.24H141.272V6.24H139.272V8.24ZM139.272 13.17V15.17H141.272V13.17H139.272ZM130.688 13.17V11.17H128.688V13.17H130.688ZM130.688 15.838H128.688V17.838H130.688V15.838ZM138.838 15.838V21H142.838V15.838H138.838ZM140.838 19H123.96V23H140.838V19ZM125.96 21V0.699999H121.96V21H125.96ZM123.96 2.7H140.461V-1.3H123.96V2.7ZM138.461 0.699999V5.862H142.461V0.699999H138.461ZM140.461 3.862H130.688V7.862H140.461V3.862ZM128.688 5.862V8.24H132.688V5.862H128.688ZM130.688 10.24H139.272V6.24H130.688V10.24ZM137.272 8.24V13.17H141.272V8.24H137.272ZM139.272 11.17H130.688V15.17H139.272V11.17ZM128.688 13.17V15.838H132.688V13.17H128.688ZM130.688 17.838H140.838V13.838H130.688V17.838ZM163.482 0.699999H165.482V-1.3H163.482V0.699999ZM163.482 21V23H165.482V21H163.482ZM157.856 21L156.322 22.2832L156.922 23H157.856V21ZM150.142 11.778L151.676 10.4948L148.142 6.26985V11.778H150.142ZM150.142 21V23H152.142V21H150.142ZM143.472 21H141.472V23H143.472V21ZM143.472 0.699999V-1.3H141.472V0.699999H143.472ZM149.098 0.699999L150.632 -0.583215L150.033 -1.3H149.098V0.699999ZM156.812 9.922L155.278 11.2052L158.812 15.4302V9.922H156.812ZM156.812 0.699999V-1.3H154.812V0.699999H156.812ZM161.482 0.699999V21H165.482V0.699999H161.482ZM163.482 19H157.856V23H163.482V19ZM159.39 19.7168L151.676 10.4948L148.608 13.0612L156.322 22.2832L159.39 19.7168ZM148.142 11.778V21H152.142V11.778H148.142ZM150.142 19H143.472V23H150.142V19ZM145.472 21V0.699999H141.472V21H145.472ZM143.472 2.7H149.098V-1.3H143.472V2.7ZM147.564 1.98321L155.278 11.2052L158.346 8.63879L150.632 -0.583215L147.564 1.98321ZM158.812 9.922V0.699999H154.812V9.922H158.812ZM156.812 2.7H163.482V-1.3H156.812V2.7Z" fill="#EC2383" mask="url(#path-1-outside-1_504_4279)"/>
</svg>
